<svg xmlns="http://www.w3.org/2000/svg" width="111" height="40" viewBox="0 0 111 40">
    <path fill="#262635" fill-rule="evenodd" d="M52.327 18.544c0 3.475 1.957 6.847 6.732 6.847 5.083 0 7.041-3.647 7.041-6.847 0-8.498-12.468-4.645-12.468-12.282 0-2.856 1.82-5.643 5.565-5.643 3.537 0 5.77 1.996 5.77 5.47v.586h.686v-.517C65.653 3.268 64.04 0 59.265 0c-4.808 0-6.32 3.75-6.32 6.124 0 4.163 2.748 5.333 6.457 6.503 2.885.928 6.011 1.96 6.011 5.745 0 4.438-2.954 6.4-6.389 6.4-3.846 0-6.01-2.478-6.01-6.228v-1.067h-.687v1.067zm24.386 6.434H88.15v-.62H77.4V12.456h9.72v-.62H77.4V1.032h10.475v-.62H76.713v24.566zm26.894 0V1.032h-6.664v-.62h14.014v.62h-6.664v23.946h-.686zM7.39.414h2.648a29.122 29.122 0 0 0-3.537 4.338l.89-4.338zm1.256 9.07c1.084-2.42 2.674-4.686 4.724-6.737A23.397 23.397 0 0 1 16.088.413h4.19A18.449 18.449 0 0 0 14.92 4.16c-1.543 1.545-2.78 3.236-3.675 5.032-.867 1.738-1.392 3.523-1.56 5.306-.342 3.612.82 6.95 3.27 9.4.508.509 1.07.96 1.677 1.348H10.3a12.606 12.606 0 0 1-2.28-3.702c-.626-1.574-.943-3.275-.943-5.058 0-2.318.53-4.676 1.571-7zm-2.393 7.002c0 1.887.337 3.692 1.002 5.36a13.408 13.408 0 0 0 1.97 3.4H5.55c-.404-.681-.755-1.391-1.05-2.13a15.8 15.8 0 0 1-.986-3.774L6.006 7.175c1.219-2.26 2.821-4.389 4.78-6.348.14-.138.281-.277.423-.413h3.53a24.344 24.344 0 0 0-1.949 1.753c-2.121 2.12-3.768 4.47-4.893 6.981-1.09 2.431-1.643 4.901-1.643 7.338zm21.144.046a7.761 7.761 0 0 1-2.751 1.792l.266-1.298a6.16 6.16 0 0 0 1.907-1.295c.915-.915 1.468-2.053 1.56-3.204.093-1.16-.281-2.224-1.056-2.999a3.339 3.339 0 0 0-.76-.566l.284-1.388c.56.21 1.06.528 1.481.949.884.885 1.352 2.004 1.352 3.239 0 1.604-.811 3.298-2.283 4.77zm.163-4.071c-.076.957-.545 1.912-1.322 2.688a5.327 5.327 0 0 1-1.117.856l1.267-6.188c.127.086.244.184.353.292.602.601.893 1.436.82 2.352zm2.942-.7c0-1.457-.551-2.777-1.594-3.819a4.967 4.967 0 0 0-1.895-1.176l.323-1.58a5.823 5.823 0 0 1 2.718 1.528c2.86 2.861 2.32 7.716-1.259 11.293-1.378 1.38-3.004 2.338-4.653 2.776l.313-1.525c1.28-.384 2.5-1.122 3.523-2.144 1.628-1.628 2.524-3.53 2.524-5.352zM3.737 23.422c.25.628.54 1.237.865 1.825H2.305l.78-3.812c.176.677.393 1.34.652 1.987zM14.191 6.185c.407-.495.844-.977 1.312-1.445 2.09-2.089 4.532-3.543 7.015-4.326h2.31l-.266 1.304c-2.868.419-5.662 1.87-7.911 4.117-.116.116-.23.233-.341.35h-2.12zm15.186 12.404c3.91-3.91 4.452-9.264 1.26-12.456a6.658 6.658 0 0 0-3.134-1.753l.372-1.82c1.619.284 3.092.997 4.256 2.161 1.56 1.56 2.4 3.48 2.477 5.623a9.854 9.854 0 0 1-.097 1.733c-.385 2.638-1.802 5.297-3.994 7.488-1.933 1.933-4.403 3.26-6.892 3.75l.336-1.642c1.923-.424 3.828-1.495 5.416-3.084zm-7.874-8.858c-.175.139-.344.29-.505.451-1.094 1.095-1.697 2.42-1.697 3.731 0 .599.132 1.169.382 1.674H18.22a4.925 4.925 0 0 1-.17-1.306c0-1.557.701-3.198 1.936-4.55h1.517zm2.351-4.554l-.205 1.008h-2.414a9.601 9.601 0 0 1 2.62-1.008zm8.858-1.037a8.479 8.479 0 0 0-3.526-2.111 9.752 9.752 0 0 0-1.145-.276l.274-1.34h2.402a9.615 9.615 0 0 1 3.497 2.225 10.385 10.385 0 0 1 2.343 3.547h-1.096l-.388 1.892-.037-.123c-.434-1.424-1.216-2.706-2.324-3.814zm4.724 2.045a11.169 11.169 0 0 0-2.64-4.129A10.17 10.17 0 0 0 32.641.414h4.484a12.958 12.958 0 0 1 3.107 5.771h-2.797zM24.033 4.303c-1.513.274-2.992.921-4.321 1.882h-2.243c2.058-1.969 4.513-3.186 6.915-3.604l-.351 1.722zm-3.08 15.056l-.318 1.526a6.292 6.292 0 0 1-2.873-1.531H20.955l-.002.005zm-7.777-4.123c0-1.856.526-3.734 1.52-5.505h1.758c-.942 1.574-1.456 3.305-1.456 4.997 0 .292.016.577.046.86h-1.86a10.579 10.579 0 0 1-.008-.352zm7.291 6.454l-.36 1.73c-1.776-.265-3.337-1.036-4.57-2.269a7.832 7.832 0 0 1-1.341-1.797h2.427a7.114 7.114 0 0 0 3.845 2.337zm-9.964-7.116c.262-2.771 1.464-5.574 3.434-8.073l-.657 3.228h.482c-.922 1.778-1.408 3.65-1.408 5.506 0 .119.004.236.008.352h-.29l-.753 3.767h1.953c.424.88.989 1.684 1.683 2.378 1.351 1.35 3.053 2.198 4.985 2.496l-.212 1.018h-3.355a9.286 9.286 0 0 1-2.837-1.93c-2.274-2.274-3.35-5.378-3.033-8.742zm5.317.154c0-1.696.57-3.44 1.604-4.997h1.485a8.388 8.388 0 0 0-1.066 1.764c-.409.92-.616 1.858-.616 2.786 0 .449.05.887.148 1.306h-1.504a7.232 7.232 0 0 1-.051-.859zm7.627 9.453c2.76-.466 5.52-1.901 7.652-4.035a16.42 16.42 0 0 0 1.996-2.412l-.685 3.338c-.085.087-.17.177-.258.264a16.846 16.846 0 0 1-6.162 3.91h-2.76l.217-1.065zm8.107 1.064H28.08a17.756 17.756 0 0 0 4.037-2.741l-.563 2.741zm5.727-14.576c-.015.326-.041.653-.081.981-.201 1.642-.72 3.29-1.523 4.877h-1.843c.766-1.399 1.277-2.867 1.49-4.331.075-.516.11-1.025.11-1.527h1.847zM42.099.414c.382.662.717 1.354 1.002 2.074.465 1.178.791 2.415.977 3.697h-2.999A13.791 13.791 0 0 0 38.221.414H42.1zm.941 0h2.37l-.828 4.047A16.748 16.748 0 0 0 43.04.414zM41.37 11.32c.022-.218.04-.435.055-.652h1.673l-1.182 5.858h-1.894a18.767 18.767 0 0 0 1.348-5.206zm-.769-.652c-.013.19-.029.377-.05.566-.187 1.78-.67 3.562-1.423 5.292h-2.536c.743-1.557 1.228-3.17 1.425-4.777.044-.363.073-.722.087-1.08H40.6zm-19.02.095c.33-.331.695-.61 1.078-.831l-1.14 5.654h-.88a2.842 2.842 0 0 1-.515-1.674c0-1.092.517-2.21 1.457-3.15zM0 39.32v-4.157h2.057v.315H.37v1.514h1.575v.313H.371v1.701H2.11v.314H0zm4.499 0v-4.157h2.057v.315H4.87v1.514h1.575v.313H4.87v2.015h-.371zm9.898-3.09h-.372c0-.513-.232-.823-.744-.823-.506 0-.785.333-.785.746 0 1.235 2.011.565 2.011 2.02 0 .81-.5 1.217-1.255 1.217-.785 0-1.209-.413-1.209-1.234v-.122h.371v.157c0 .536.274.885.826.885.53 0 .896-.261.896-.844 0-1.24-2.012-.53-2.011-2.038 0-.652.423-1.1 1.144-1.1.774 0 1.128.39 1.128 1.135zm3.296 3.09V35.48h-1.07v-.315h2.51v.315h-1.069v3.842h-.37zm3.069 0l1.226-4.157h.465l1.227 4.157h-.396l-.337-1.21h-1.453l-.337 1.21h-.395zm.814-1.525h1.29l-.64-2.34h-.011l-.64 2.34zm4.342 1.525v-4.157h.499l1.587 3.622h.012v-3.622h.372v4.157h-.5l-1.587-3.62h-.012v3.62h-.371zm5.039 0v-4.157h1c1.209 0 1.505.722 1.505 2.079 0 1.357-.296 2.078-1.506 2.078h-.999zm.371-3.842v3.528h.605c.814 0 1.158-.407 1.158-1.759 0-1.368-.344-1.77-1.158-1.77h-.605zm4.337 3.842l1.226-4.157h.465l1.227 4.157h-.396l-.337-1.21h-1.453l-.337 1.21h-.395zm.814-1.525h1.29l-.64-2.34h-.01l-.64 2.34zm4.342 1.525v-4.157h1.238c.698 0 1.075.39 1.075 1.043 0 .5-.197.949-.75 1.054v.011c.518.047.692.338.71.984l.01.454c.007.227.03.448.175.611h-.436c-.086-.145-.104-.355-.11-.582l-.011-.35c-.03-.733-.152-.966-.826-.966h-.704v1.898h-.371zm.371-3.842v1.63h.64c.587 0 .93-.262.93-.815 0-.513-.215-.815-.89-.815h-.68zm4.453 3.842v-4.157h1c1.209 0 1.505.722 1.505 2.079 0 1.357-.296 2.078-1.505 2.078h-1zm.372-3.842v3.528h.604c.814 0 1.158-.407 1.158-1.759 0-1.368-.344-1.77-1.158-1.77h-.604zm8.446 3.842v-4.157h2.057v.315h-1.686v1.514h1.575v.313h-1.575v1.701h1.738v.314h-2.11zm4.499 0v-4.157h.499l1.587 3.622h.012v-3.622h.371v4.157h-.499l-1.587-3.62h-.012v3.62h-.371zm7.195-1.805h-.982v-.313h1.33v2.118h-.29v-.686h-.011c-.134.466-.494.756-.913.756-.855 0-1.325-.657-1.325-2.148s.47-2.148 1.325-2.148c.79 0 1.145.517 1.191 1.234h-.371c0-.501-.279-.92-.82-.92-.587 0-.953.483-.953 1.834s.366 1.834.953 1.834c.558 0 .866-.495.866-1.473v-.088zm2.883 1.805v-4.157h.372v3.843h1.72v.314H69.04zm4.418 0v-4.157h.372v4.157h-.372zm5.155-3.09h-.372c0-.513-.232-.823-.744-.823-.506 0-.785.333-.785.746 0 1.235 2.012.565 2.012 2.02 0 .81-.5 1.217-1.255 1.217-.785 0-1.21-.413-1.21-1.234v-.122h.372v.157c0 .536.273.885.825.885.53 0 .896-.261.896-.844 0-1.24-2.012-.53-2.012-2.038 0-.652.425-1.1 1.146-1.1.774 0 1.127.39 1.127 1.135zm4.511 3.09v-2.073h-1.622v2.073h-.372v-4.157h.372v1.77h1.622v-1.77h.372v4.157h-.372zm7.283 0V35.48h-1.07v-.315h2.511v.315h-1.07v3.842h-.37zm3.72 0v-4.157h2.056v.315h-1.685v1.514h1.575v.313h-1.575v1.701h1.738v.314h-2.109zm6.69-3.09h-.372c0-.513-.232-.823-.744-.823-.507 0-.785.333-.785.746 0 1.235 2.01.565 2.01 2.02 0 .81-.499 1.217-1.254 1.217-.785 0-1.209-.413-1.209-1.234v-.122h.371v.157c0 .536.274.885.826.885.53 0 .896-.261.896-.844 0-1.24-2.011-.53-2.011-2.038 0-.652.423-1.1 1.144-1.1.774 0 1.128.39 1.128 1.135zm3.296 3.09V35.48h-1.07v-.315h2.511v.315h-1.07v3.842h-.37z"/>
</svg>
